<?xml version="1.0" encoding="utf-8"?>
<!-- Generator: Adobe Illustrator 19.1.0, SVG Export Plug-In . SVG Version: 6.00 Build 0)  -->
<svg version="1.1" xmlns="http://www.w3.org/2000/svg" xmlns:xlink="http://www.w3.org/1999/xlink" x="0px" y="0px"
	 viewBox="0 0 435.9 196.3" style="enable-background:new 0 0 435.9 196.3;" xml:space="preserve">
<style type="text/css">
	.st0{fill:#CDDC39;}
</style>
<g id="Layer_1">
	<g>
		<path class="st0" d="M0,10.1h58.6c0,0,46.3-1.3,50.6,35.7c4.1,35.1-28,44.3-28,44.3l36,60l-40.5,0l-30-55.8H36.5l-0.3,55.8H2.9
			v-81h55.3c0,0,17.7-1.6,17.4-16.7C75.4,39.2,59.5,38,59.5,38h-44L0,10.1z"/>
		<path class="st0" d="M226,51.5h-34.5l-19.1,62l-21.6-62h-36.3l39.7,95.8c0,0-0.8,13.4-11,19.5c-5.3,3.2-18.7,0-18.7,0l15.8,29.4
			c0,0,12,1.4,23.8-6.2c14.5-9.4,19.7-28.2,25.6-43.3C199.1,122.9,226,51.5,226,51.5z"/>
		<path class="st0" d="M328.2,150.1h-30.8l-0.5-12.1c0,0-8.4,15.4-32.4,15.1c-19-0.3-45.8-13.6-45.8-51.6c0-28.5,20.8-53.8,47-53.5
			c20.3,0.2,29.8,13,29.8,13V0h32.8V150.1z M274.7,125c13-0.1,23.3-14.1,22-27c-1.2-11.8-11-22.1-24.2-22
			c-10.8,0.1-21.2,12-21.2,22.5C251.2,117.3,262.9,125.1,274.7,125z"/>
		<path class="st0" d="M365.2,109.4c0,0,4.4,15.5,20.3,17.3c14.3,1.7,24-9,24-9l13,24.7c0,0-12,13.1-44.3,10
			c-24.7-2.6-42-23.3-44-46c0-25,6-34.3,13.7-43c5.3-5.3,19-16.3,40-15.3c40.7,0,48,41.3,48,41.3v20H365.2z M385.9,71.4
			c-19.6,2-19.7,17.7-19.7,17.7h40.7C406.9,89.1,404.9,71.4,385.9,71.4z"/>
	</g>
</g>
<g id="Layer_2">
</g>
</svg>
